<svg xmlns="http://www.w3.org/2000/svg" viewBox="0 0 16 16"><path fill="#FFF" d="M4 3h10v12H4V3z"/><path fill="#666" d="M4 3v12h10V3H4zm1 1h8v10H5V4z"/><path fill="#999" d="M5 4h8v1H5z"/><path fill="#B9B9B9" d="M2 1h1v1H2zM2 3h1v1H2zM2 5h1v1H2zM2 7h1v1H2zM2 9h1v1H2zM2 11h1v1H2zM4 1h1v1H4zM6 1h1v1H6zM8 1h1v1H8zM10 1h1v1h-1z"/><g fill="none" stroke="#FF8700" stroke-width="1"><path d="M7.5 8.5L7 9a1 1 0 0 0 1.5 1.5l.5-.5"/><path d="M10.5 10.5L11 10a1 1 0 0 0-1.5-1.5l-.5.5"/><line x1="8.5" y1="9.5" x2="9" y2="9" stroke-dasharray="0.5,0.5"/></g></svg>
