<svg xmlns="http://www.w3.org/2000/svg" viewBox="0 0 16 16"><path fill="#FFF" d="M4 3h10v12H4V3z"/><path fill="#666" d="M4 3v12h10V3H4zm1 1h8v10H5V4z"/><path fill="#999" d="M5 4h8v1H5z"/><path fill="#B9B9B9" d="M2 1h1v1H2zM2 3h1v1H2zM2 5h1v1H2zM2 7h1v1H2zM2 9h1v1H2zM2 11h1v1H2zM4 1h1v1H4zM6 1h1v1H6zM8 1h1v1H8zM10 1h1v1h-1z"/><g fill="#FF8700"><rect x="6.5" y="7" width="5" height="4" rx="0.5"/><circle cx="8" cy="8.5" r="0.7" fill="#FFF"/><path fill="#FFF" d="M11 10.5l-1.5-1.5-1 1-0.5-0.5-1 1v1.5h4z"/><path fill="#FF8700" d="M10.5 7v2h1V7z"/><circle cx="11" cy="10" r="0.3" fill="#FF8700"/></g></svg>
