<svg xmlns="http://www.w3.org/2000/svg" viewBox="0 0 16 16"><path fill="#FFF" d="M4 3h10v12H4V3z"/><path fill="#666" d="M4 3v12h10V3H4zm1 1h8v10H5V4z"/><path fill="#999" d="M5 4h8v1H5z"/><path fill="#B9B9B9" d="M2 1h1v1H2zM2 3h1v1H2zM2 5h1v1H2zM2 7h1v1H2zM2 9h1v1H2zM2 11h1v1H2zM4 1h1v1H4zM6 1h1v1H6zM8 1h1v1H8zM10 1h1v1h-1z"/><g fill="#FF8700"><circle cx="9" cy="9.5" r="3.5"/><circle cx="9" cy="9.5" r="2.3" fill="#FFF"/><circle cx="9" cy="9.5" r="1.2"/><circle cx="9" cy="9.5" r="0.5" fill="#FFF"/></g></svg>
